<?xml version="1.0" encoding="utf-8"?>
<!-- Generator: Adobe Illustrator 17.0.0, SVG Export Plug-In . SVG Version: 6.00 Build 0)  -->
<!DOCTYPE svg PUBLIC "-//W3C//DTD SVG 1.1//EN" "http://www.w3.org/Graphics/SVG/1.1/DTD/svg11.dtd">
<svg version="1.1" id="Layer_1" xmlns="http://www.w3.org/2000/svg" xmlns:xlink="http://www.w3.org/1999/xlink" x="0px" y="0px"
	 width="233px" height="142px" viewBox="0 0 233 142" enable-background="new 0 0 233 142" xml:space="preserve">
<g>
	
		<rect x="86.329" y="18.446" transform="matrix(0.7071 -0.7071 0.7071 0.7071 -0.2555 96.6176)" fill="#044468" width="60.342" height="60.342"/>
	<g>
		<path fill="#FFFFFF" d="M136.628,37.924l-12.173,28.163l-7.955-18.32l-7.955,18.32L96.372,37.924h-3.977v-0.803h12.494v0.803
			h-3.656l9.321,21.534l5.504-12.76l-3.777-8.775h-4.017v-0.803h16.472v0.803h-4.018l-1.808,4.186l7.513,17.349l9.281-21.534h-3.616
			v-0.803h8.517v0.803H136.628z M117.103,37.924l1.366,3.174l1.366-3.174H117.103z"/>
	</g>
</g>
<g>
	<path fill="#044468" d="M13.239,102.354c0.467,0,1.536,0.233,3.071,0.233c0.668,0,1.937-0.133,2.638-0.133
		c0.901,0,0.935,0.233,0.935,0.4c0,0.568-1.135,0.201-1.736,0.801c-0.267,0.267-0.334,0.701-0.334,1.436
		c0,0.768,4.107,17.527,4.674,17.527c0.133,0,4.474-6.944,4.474-7.679c0-0.667-0.033-0.567-0.167-1.102l-1.436-5.676
		c-0.467-1.836-0.768-3.706-1.937-4.44c-0.901-0.567-1.703-0.434-1.703-0.968c0-0.2,0.134-0.333,0.968-0.333
		c0.734,0,1.636,0.167,2.571,0.167c0.667,0,1.937-0.133,2.638-0.133c0.901,0,1.035,0.133,1.035,0.4c0,0.901-1.836-0.2-1.836,1.836
		c0,0.267,0.734,3.038,1.502,5.909c0.134,0.568,0.167,0.902,0.334,0.902c0.534,0,3.405-6.41,3.405-6.811
		c0-1.669-2.237-1.135-2.237-1.937c0-0.233,0.267-0.333,0.868-0.333c0.467,0,1.502,0.1,2.604,0.1c0.534,0,0.835-0.1,2.137-0.1
		c0.668,0,1.002,0.2,1.002,0.467c0,0.734-0.668,0.1-1.669,0.935c-0.868,0.735-1.903,2.771-3.005,4.808
		c-2.571,4.674-2.571,4.44-2.571,5.042c0,0.734,2.438,9.014,2.771,9.014c0.301,0,9.382-16.66,9.382-18.095
		c0-1.736-2.471-0.835-2.471-1.803c0-0.301,0.3-0.434,0.701-0.434c0.467,0,2.103,0.133,3.205,0.133c0.534,0,1.903-0.133,2.204-0.133
		c0.667,0,1.135,0.233,1.135,0.5c0,0.768-1.001,0.201-2.003,1.035c-1.536,1.269-3.839,7.111-6.443,11.518
		c-2.371,4.04-5.042,9.115-6.477,11.151c-0.1,0.167-0.301,0.333-0.701,0.333c-0.634,0-0.568-0.768-0.935-2.137l-1.97-7.479
		c-0.1-0.4-0.167-0.667-0.267-0.667c-0.133,0-5.409,9.148-6.043,9.916c-0.1,0.1-0.2,0.234-0.4,0.234
		c-0.367,0-0.501-0.234-0.935-2.003c-5.275-21.167-4.841-20.232-6.009-20.966c-0.901-0.568-1.636-0.434-1.636-1.102
		C12.571,102.421,12.938,102.354,13.239,102.354z"/>
	<path fill="#044468" d="M44.716,112.37h0.334c1.335,0,1.903-0.3,3.806-0.3c0.233,0,0.467,0.133,0.467,0.367
		c0,0.868-0.634,2.17-0.901,3.873c-1.001,6.31-1.001,6.243-1.001,6.644c0,0.467,0.333,0.901,0.667,0.901
		c1.135,0,1.603-1.736,2.07-1.736c0.2,0,0.334,0.133,0.334,0.367c0,0.4-0.601,1.536-0.968,1.937c0,0-1.836,1.97-3.071,1.97
		c-1.002,0-1.235-1.335-1.235-2.771c0-2.538,1.502-7.746,1.502-9.649c0-0.567-0.201-0.701-0.801-0.701
		c-0.701,0-1.235-0.033-1.502-0.033c-0.2,0-0.468-0.067-0.468-0.401C43.948,112.403,44.348,112.37,44.716,112.37z M49.156,104.491
		c0.667,0,1.302,1.168,1.302,1.77c0,0.667-1.169,1.769-1.469,1.769c-0.601,0-1.502-1.436-1.502-1.769
		C47.487,105.959,48.555,104.491,49.156,104.491z"/>
	<path fill="#044468" d="M55.698,111.535c1.937,0,1.235,3.505,1.536,3.505c0.2,0,0.434-0.734,1.669-1.669
		c0.901-0.701,2.671-1.903,4.073-1.903c2.337,0,2.804,2.07,2.804,4.173c0,2.337-0.567,5.876-0.567,7.011
		c0,0.935,0.267,1.202,0.634,1.202c0.567,0,1.335-0.734,1.335-0.734c0.4-0.501,0.534-0.901,1.035-0.901c0.234,0,0.301,0.2,0.301,0.4
		c0,1.302-2.938,3.639-4.407,3.639c-0.667,0-1.235-0.935-1.235-2.103c0-2.538,0.701-7.011,0.701-8.247
		c0-0.534-0.167-2.738-2.337-2.738c-0.768,0-1.402,0.367-2.17,1.469c-1.436,2.037-1.035,1.736-1.836,6.043
		c-0.834,4.507-0.601,4.106-0.667,4.574c-0.101,0.734-0.368,0.868-1.235,0.868c-0.901,0-1.169-0.067-1.169-1.035
		c0-1.402,1.469-6.577,1.469-9.148c0-1.168-0.434-1.836-0.768-1.836c-1.035,0-1.402,1.87-2.137,1.87c-0.233,0-0.3-0.267-0.3-0.634
		C52.427,114.039,54.43,111.535,55.698,111.535z"/>
	<path fill="#044468" d="M70.752,123.053c1.703,0,1.135,2.304,3.171,2.304c2.438,0,2.671-1.736,2.671-2.137
		c0-1.569-1.102-2.537-2.304-3.739c-1.335-1.369-2.604-2.237-2.604-4.24c0-2.237,1.937-3.773,4.541-3.773
		c1.803,0,3.105,0.434,3.105,1.736c0,1.035-1.102,1.135-1.269,1.135c-1.202,0-1.335-1.87-2.638-1.87c-1.269,0-1.77,0.768-1.77,1.77
		c0,1.269,1.836,2.638,2.638,3.506c1.035,1.168,2.304,2.103,2.304,4.34c0,1.202-0.935,4.374-5.208,4.374
		c-1.302,0-3.706-0.434-3.706-2.204C69.683,123.22,70.351,123.053,70.752,123.053z"/>
	<path fill="#044468" d="M84.004,110.867c1.335-1.402,1.402-1.836,1.936-1.836c0.167,0,0.334,0.1,0.334,0.4
		c0,0.434-0.601,2.003-0.601,2.504c0,0.201,0.067,0.234,1.168,0.234c1.302,0,1.569-0.033,1.937-0.033
		c0.701,0,0.868,0.233,0.868,0.634c0,0.768-0.2,0.968-0.801,0.968c-0.534,0-1.97-0.167-2.704-0.167c-0.968,0-0.868,0.601-1.068,1.97
		c-0.301,2.07-1.068,6.41-1.068,6.944c0,1.77,1.235,1.836,1.369,1.836c1.836,0,2.604-1.469,3.138-1.469c0.1,0,0.367,0,0.367,0.467
		c0,0.868-2.837,3.139-4.908,3.139c-0.901,0-2.137-0.534-2.137-3.139c0-3.071,1.402-8.48,1.402-9.381c0-0.701-1.97,0.033-1.97-0.901
		C81.266,112.37,82.534,112.403,84.004,110.867z"/>
	<path fill="#044468" d="M98.758,111.535c3.339,0,4.875,2.771,4.875,5.909c0,4.173-2.738,8.948-7.646,8.948
		c-2.737,0-5.108-1.903-5.108-5.976C90.879,116.276,93.684,111.535,98.758,111.535z M96.355,125.391
		c3.572,0,4.808-5.576,4.808-8.347c0-3.139-1.336-4.507-2.872-4.507c-1.603,0-3.405,1.469-4.173,4.173
		c-0.333,1.168-0.667,2.371-0.667,3.739C93.45,123.821,94.785,125.391,96.355,125.391z"/>
	<path fill="#044468" d="M108.605,111.535c1.937,0,1.235,3.505,1.536,3.505c0.2,0,0.434-0.734,1.669-1.669
		c0.901-0.701,2.671-1.903,4.073-1.903c2.337,0,2.804,2.07,2.804,4.173c0,2.337-0.567,5.876-0.567,7.011
		c0,0.935,0.267,1.202,0.634,1.202c0.567,0,1.335-0.734,1.335-0.734c0.401-0.501,0.534-0.901,1.035-0.901
		c0.234,0,0.301,0.2,0.301,0.4c0,1.302-2.938,3.639-4.407,3.639c-0.667,0-1.235-0.935-1.235-2.103c0-2.538,0.701-7.011,0.701-8.247
		c0-0.534-0.167-2.738-2.337-2.738c-0.768,0-1.402,0.367-2.17,1.469c-1.436,2.037-1.035,1.736-1.836,6.043
		c-0.834,4.507-0.601,4.106-0.667,4.574c-0.101,0.734-0.368,0.868-1.235,0.868c-0.901,0-1.169-0.067-1.169-1.035
		c0-1.402,1.469-6.577,1.469-9.148c0-1.168-0.434-1.836-0.768-1.836c-1.035,0-1.402,1.87-2.137,1.87c-0.233,0-0.3-0.267-0.3-0.634
		C105.333,114.039,107.336,111.535,108.605,111.535z"/>
	<path fill="#044468" d="M131.702,124.556c0.701-0.701,0.768-2.537,1.569-9.381c0.567-4.641,1.202-9.715,1.202-9.782
		c0-1.97-2.371-1.703-2.871-1.937c-0.201-0.067-0.268-0.234-0.268-0.4c0-0.267,0.2-0.501,0.901-0.501
		c0.935,0,1.569,0.234,3.438,0.234c1.436,0,2.471-0.234,3.139-0.234c0.233,0,0.601,0.033,0.601,0.501
		c0,0.534-1.235,0.267-1.735,0.868c-0.802,0.935-0.734,3.172-1.503,7.512c-0.1,0.634-0.134,1.068-0.134,1.302
		c0,0.401,0.134,0.401,0.401,0.401c1.102,0,2.203,0.033,11.117,0.1h0.668c0.734,0,0.868-0.133,1.001-1.369
		c0.101-0.968,0.635-5.643,0.635-6.01c0-1.135-0.635-1.87-1.335-2.17c-0.501-0.2-1.804-0.1-1.804-0.634
		c0-0.267,0.201-0.434,0.902-0.434c0.935,0,1.702,0.1,3.572,0.1c1.436,0,2.203-0.134,2.871-0.134c0.233,0,0.734,0.034,0.734,0.501
		c0,0.534-1.068,0.267-1.569,0.868c-0.668,0.768-0.901,2.838-1.002,3.906c-0.935,8.814-1.803,13.622-1.803,14.857
		c0,2.604,1.202,2.47,2.07,2.537c0.501,0.033,1.102,0.234,1.102,0.601c0,0.333-0.267,0.4-0.601,0.4c-1.303,0-2.004-0.3-3.405-0.3
		c-1.703,0-2.304,0.267-3.005,0.267c-0.734,0-1.068-0.167-1.068-0.434c0-0.367,0.233-0.467,0.634-0.501
		c1.603-0.167,1.603-1.97,1.736-2.971c0.334-2.371,0.935-7.044,0.935-7.211c0-0.467-0.1-0.534-1.135-0.534
		c-0.668,0-1.703,0.033-3.339,0.033h-7.846c-0.768,0-0.701,0.034-0.801,0.835l-0.234,1.736c-0.434,3.005-0.701,4.875-0.701,5.576
		c0,2.304,1.068,2.237,1.903,2.471c0.534,0.133,1.002,0.167,1.002,0.534c0,0.3-0.301,0.3-0.534,0.3c-1.402,0-1.77-0.067-3.539-0.067
		c-0.769,0-1.803,0.167-2.604,0.167c-0.668,0-1.135-0.067-1.135-0.467C129.866,124.957,130.767,125.491,131.702,124.556z"/>
	<path fill="#044468" d="M159.241,111.769c1.202,0,1.269,2.037,1.269,2.438c0,2.938-1.235,6.677-1.235,9.214
		c0,0.568,0.367,0.902,0.602,0.902c1.068,0,2.236-1.569,3.806-3.439c2.17-2.638,3.104-5.709,3.873-8.647
		c0.1-0.434,0.634-0.534,0.968-0.534c0.534,0,1.102,0.233,1.102,0.734c0,0.901-2.036,8.981-2.036,10.684
		c0,0.734,0.434,0.801,0.734,0.801c2.036,0,2.17-2.471,2.871-2.471c0.435,0,0.468,0.401,0.468,0.701c0,0.801-2.07,4.207-5.209,4.207
		c-0.734,0-1.001-0.768-1.001-1.803c0-2.137,0.601-4.774,0.601-5.075c0-0.234-0.066-0.367-0.167-0.367
		c-0.2,0-0.367,0.734-1.368,2.137c-1.503,2.137-3.974,5.175-6.41,5.175c-0.902,0-1.136-1.168-1.136-2.137
		c0-3.605,1.503-7.278,1.503-9.315c0-0.367-0.234-0.701-0.668-0.701c-0.301,0-1.035,0.868-1.503,1.936
		c-0.133,0.334-0.333,0.468-0.5,0.468c-0.2,0-0.334-0.201-0.334-0.434C155.469,114.84,157.004,111.769,159.241,111.769z"/>
	<path fill="#044468" d="M174.161,123.921c0.668,0,0.901,0.334,1.436,0.334c1.235,0,3.906-5.142,3.906-5.142
		c0-0.067-1.102-3.405-1.735-4.374c-0.268-0.434-0.534-0.534-0.769-0.534c-1.603,0-1.201,2.003-1.937,2.003
		c-0.333,0-0.467-0.233-0.467-1.168c0-0.434,0.3-1.669,0.834-2.404c0.468-0.667,1.336-1.135,1.804-1.135
		c2.236,0,3.305,5.275,3.705,5.275c0.301,0,2.104-5.342,5.008-5.342c0.701,0,1.235,0.701,1.235,1.369c0,0.634-0.4,1.235-1.135,1.235
		c-0.634,0-1.035-0.234-1.436-0.234c-1.102,0-3.438,3.706-3.438,4.006c0,0.301,1.636,3.973,2.604,5.91
		c0.435,0.868,1.102,1.335,1.67,1.335c0.4,0,0.834-0.067,1.135-0.067c0.268,0,0.468,0.167,0.468,0.401
		c0,0.868-1.97,1.068-2.204,1.068c-3.271,0-3.338-1.803-3.639-2.571c-0.635-1.603-1.135-3.372-1.402-3.372s-2.404,6.043-5.609,6.043
		c-0.7,0-1.201-0.568-1.201-1.269C172.993,124.188,173.494,123.921,174.161,123.921z"/>
	<path fill="#044468" d="M190.317,116.81c0.301-2.103,0.467-4.474,0.801-6.61c0.568-3.606,1.068-6.61,1.068-7.011
		c0-0.4-0.334-0.667-0.834-0.667c-0.501,0-0.568,0.033-0.969,0.033c-0.668,0-0.968-0.1-0.968-0.467c0-0.167,0.066-0.434,0.501-0.468
		c2.437-0.167,3.171-0.5,4.039-0.5c0.534,0,0.701,0.2,0.701,0.534c0,0.467-0.233,0.901-0.334,1.536
		c-1.235,6.477-0.667,5.242-1.735,12.42c-0.568,3.939-0.969,6.043-0.969,7.178c0,1.135,0.101,1.302,0.534,1.302
		c1.836,0,2.17-2.371,3.038-2.371c0.234,0,0.401,0.2,0.401,0.534s-0.868,1.469-1.67,2.404c-0.868,1.001-2.271,1.669-2.904,1.669
		c-0.668,0-1.636,0-1.636-3.138C189.383,121.284,190.251,117.344,190.317,116.81z"/>
	<path fill="#044468" d="M201.232,113.271c1.235-1.168,2.771-1.769,4.641-1.769c1.569,0,2.905,1.001,2.905,2.47
		c0,2.404-2.604,3.773-3.239,4.04c-0.3,0.133-2.103,0.868-5.241,0.901c-0.468,0-0.567,0.5-0.567,1.369
		c0,2.504,1.502,4.173,4.808,4.173c1.902,0,3.238-1.436,3.605-1.436c0.268,0,0.4,0.133,0.4,0.334c0,0.768-2.904,3.105-5.809,3.105
		c-4.24,0-5.275-2.337-5.275-5.309C197.46,118.279,198.928,115.408,201.232,113.271z M200.498,118.346
		c3.238,0,5.977-2.17,5.977-4.273c0-1.269-1.202-1.569-1.77-1.569c-0.835,0-1.87,0.667-2.738,1.569
		c-1.001,1.035-1.77,3.172-1.77,3.606C200.197,117.912,200.264,118.346,200.498,118.346z"/>
	<path fill="#044468" d="M211.111,129.13c1.336,0,1.369,1.102,2.905,1.102c1.936,0,4.14-4.273,4.14-5.542
		c0-1.87-3.673-10.483-5.442-10.483c-1.937,0-1.235,2.504-2.236,2.504c-0.2,0-0.334-0.167-0.334-0.734
		c0-1.402,0.668-4.307,2.704-4.307c3.238,0,6.41,9.482,6.777,9.482c0.468,0,1.202-3.572,1.202-5.809
		c0-0.968-0.835-1.636-0.835-2.538c0-0.601,0.334-1.235,1.136-1.235c0.734,0,1.302,0.734,1.302,1.77
		c0,1.502-0.802,6.11-2.771,11.084c-1.569,3.973-3.706,7.779-6.844,7.779c-1.436,0-2.771-0.434-2.771-1.97
		C210.043,129.664,210.544,129.13,211.111,129.13z"/>
</g>
</svg>
